# xmcd CD database file
#
# Track frame offsets:
#	150
#	35924
#	62341
#	91399
#	147278
#	172471
#	202132
#	240268
#
# Disc length: 3578 seconds
#
# Revision: 0
# Processed by: cddbd v1.5.1PL0 Copyright (c) Steve Scherf et al.
# Submitted via: CDex 1.51
#
DISCID=740df808
DTITLE=The New Talent Jazz Orchestra - Arrangements - CD 02
DYEAR=2004
DGENRE=Jazz
TTITLE0=Pablo Ablanedo - Me Voy Quedando
TTITLE1=Taylor Haskins - Nannou
TTITLE2=Avi Lebovich - Silhouettes
TTITLE3=Andrew Rathbun - Witch Hunt
TTITLE4=Guillermo Klein - Nefertiti
TTITLE5=Magali Souriau - Ahmad Ravel-Au Clair de la lune
TTITLE6=Frank Carlberg - I Got Rhythm
TTITLE7=Jason Lindner - Giant Steps
EXTD=YEAR: 2004
EXTT0=
EXTT1=
EXTT2=
EXTT3=
EXTT4=
EXTT5=
EXTT6=
EXTT7=
PLAYORDER=
